<?xml version="1.0" standalone="no"?>
<!DOCTYPE svg PUBLIC "-//W3C//DTD SVG 20010904//EN"
 "http://www.w3.org/TR/2001/REC-SVG-20010904/DTD/svg10.dtd">
<svg version="1.0" xmlns="http://www.w3.org/2000/svg"
 width="118.000000pt" height="122.000000pt" viewBox="0 0 118.000000 122.000000"
 preserveAspectRatio="xMidYMid meet">
<metadata>
Created by potrace 1.15, written by Peter Selinger 2001-2017
</metadata>
<g transform="translate(0.000000,122.000000) scale(0.100000,-0.100000)"
fill="#000000" stroke="none">
<path d="M1 916 l1 -294 40 -4 c30 -3 42 0 49 14 14 26 23 273 12 333 -4 28
-6 94 -3 148 l5 97 -52 0 -53 0 1 -294z"/>
<path d="M706 951 c-4 -5 12 -27 33 -48 44 -42 57 -79 29 -77 -17 2 -22 -7
-19 -33 1 -8 -32 -11 -122 -11 -96 0 -130 -3 -155 -16 -18 -9 -32 -21 -32 -25
0 -5 -3 -16 -6 -25 -7 -18 49 -56 82 -56 23 0 64 39 64 61 0 21 9 29 26 22 8
-3 14 -16 14 -29 0 -12 7 -27 16 -32 21 -12 10 -32 -17 -32 -22 0 -69 -28 -69
-41 0 -5 9 -17 20 -26 29 -25 25 -32 -21 -39 -34 -6 -41 -11 -46 -35 -4 -19
-10 -26 -20 -22 -28 11 -9 -28 22 -45 17 -9 32 -21 34 -25 2 -5 15 -13 30 -20
l26 -11 -33 -4 c-24 -2 -43 4 -67 22 -19 14 -36 26 -38 26 -4 0 1 -27 33 -170
7 -30 18 -69 26 -85 7 -17 17 -43 23 -58 12 -31 44 -46 104 -48 l42 -2 -35 -7
-35 -7 35 -2 c19 -1 44 -8 54 -16 35 -27 170 -10 148 19 -16 20 -20 67 -6 73
14 5 54 84 54 107 0 8 -15 19 -32 25 -18 6 -46 22 -62 36 -25 22 -30 34 -36
97 -8 90 9 155 43 160 42 6 62 168 22 168 -12 0 -14 8 -9 38 7 45 -9 110 -35
143 -24 31 -78 62 -85 50z"/>
</g>
</svg>
