<?xml version="1.0" standalone="no"?>
<!DOCTYPE svg PUBLIC "-//W3C//DTD SVG 20010904//EN"
 "http://www.w3.org/TR/2001/REC-SVG-20010904/DTD/svg10.dtd">
<svg version="1.0" xmlns="http://www.w3.org/2000/svg"
 width="120.000000pt" height="118.000000pt" viewBox="0 0 120.000000 118.000000"
 preserveAspectRatio="xMidYMid meet">
<metadata>
Created by potrace 1.15, written by Peter Selinger 2001-2017
</metadata>
<g transform="translate(0.000000,118.000000) scale(0.100000,-0.100000)"
fill="#000000" stroke="none">
<path d="M612 1049 c-21 -6 -37 -20 -45 -37 -6 -15 -22 -35 -34 -45 -18 -14
-23 -28 -22 -60 1 -41 1 -41 10 -12 18 60 41 78 105 83 98 6 146 -28 146 -105
0 -20 9 -53 19 -72 10 -20 19 -28 19 -19 0 9 6 19 13 21 7 3 8 6 1 6 -8 1 -10
23 -7 69 4 58 2 72 -19 102 -24 37 -98 81 -133 79 -11 0 -35 -5 -53 -10z"/>
<path d="M198 800 c-3 -17 -1 -33 4 -36 4 -3 8 -14 8 -26 0 -16 3 -18 14 -9
11 9 15 8 20 -5 9 -24 7 -31 -5 -14 -9 12 -12 13 -16 1 -3 -7 -13 -20 -23 -28
-10 -9 -15 -23 -13 -34 3 -11 0 -19 -6 -19 -6 0 -11 9 -11 20 0 11 -4 20 -10
20 -5 0 -10 -5 -10 -12 0 -6 -7 -3 -15 8 -12 15 -12 11 2 -18 9 -21 19 -35 22
-33 6 7 31 -52 31 -74 0 -9 -11 -29 -25 -46 -144 -176 -165 -209 -165 -256 l0
-47 62 -4 c77 -6 72 -10 186 142 47 63 89 117 92 120 20 17 51 73 47 84 -6 15
-121 195 -137 213 -5 7 -10 14 -10 17 0 3 -8 19 -19 36 l-19 31 -4 -31z"/>
<path d="M735 676 c-29 -38 -95 -71 -125 -63 -19 5 -21 2 -16 -16 4 -12 9 -34
12 -49 7 -30 32 -43 67 -33 31 10 67 45 67 67 0 10 7 21 15 24 8 4 15 12 15
19 0 6 9 20 20 30 26 23 25 28 -5 42 -23 10 -28 8 -50 -21z"/>
<path d="M865 606 c-9 -42 -20 -76 -24 -76 -5 0 -16 10 -24 23 -14 20 -16 20
-16 3 -1 -10 -12 -40 -26 -68 -14 -27 -25 -57 -25 -66 -1 -9 -7 -33 -14 -52
-39 -101 -87 -239 -105 -301 l-19 -69 265 0 266 0 -6 83 c-4 45 -14 114 -23
152 -10 39 -16 98 -15 132 1 36 -4 76 -13 96 -24 58 -87 88 -142 67 -26 -10
-26 -10 -20 21 3 17 6 36 6 42 0 6 28 8 80 3 l80 -6 0 34 0 34 -57 6 c-32 4
-79 9 -104 12 l-47 6 -17 -76z"/>
<path d="M526 512 c-3 -4 -39 -19 -82 -32 -61 -19 -81 -31 -95 -54 -16 -26
-54 -139 -80 -241 -6 -22 -20 -65 -31 -95 -11 -30 -22 -63 -25 -72 -5 -16 5
-18 110 -18 l115 0 5 28 c17 92 33 112 22 29 l-7 -58 38 3 38 3 16 85 c9 47
15 87 13 89 -2 3 -17 -5 -33 -17 -16 -12 -38 -22 -49 -22 -11 0 -22 -6 -24
-12 -10 -23 -7 34 4 101 11 66 48 170 81 226 22 36 23 65 4 65 -8 0 -17 -4
-20 -8z"/>
<path d="M617 483 c-33 -4 -36 -7 -31 -27 4 -16 -10 -59 -39 -127 -25 -57 -48
-119 -52 -138 l-7 -33 32 18 c17 11 37 25 43 33 14 17 34 88 46 160 9 60 28
81 73 81 15 0 28 4 28 10 0 10 -34 31 -47 28 -4 -1 -25 -3 -46 -5z"/>
</g>
</svg>
